<?xml version="1.0" encoding="UTF-8" standalone="no"?>
<svg
   xmlns:dc="http://purl.org/dc/elements/1.1/"
   xmlns:cc="http://creativecommons.org/ns#"
   xmlns:rdf="http://www.w3.org/1999/02/22-rdf-syntax-ns#"
   xmlns:svg="http://www.w3.org/2000/svg"
   xmlns="http://www.w3.org/2000/svg"
   xmlns:sodipodi="http://sodipodi.sourceforge.net/DTD/sodipodi-0.dtd"
   xmlns:inkscape="http://www.inkscape.org/namespaces/inkscape"
   width="111.42982mm"
   height="48.659496mm"
   viewBox="0 0 111.42982 48.659496"
   version="1.1"
   id="svg1"
   sodipodi:docname="wina.svg"
   inkscape:version="0.92.3 (2405546, 2018-03-11)">
  <metadata
     id="metadata32">
    <rdf:RDF>
      <cc:Work
         rdf:about="">
        <dc:format>image/svg+xml</dc:format>
        <dc:type
           rdf:resource="http://purl.org/dc/dcmitype/StillImage" />
        <dc:title></dc:title>
      </cc:Work>
    </rdf:RDF>
  </metadata>
  <sodipodi:namedview
     pagecolor="#ffffff"
     bordercolor="#666666"
     borderopacity="1"
     objecttolerance="10"
     gridtolerance="10"
     guidetolerance="10"
     inkscape:pageopacity="0"
     inkscape:pageshadow="2"
     inkscape:window-width="640"
     inkscape:window-height="480"
     id="namedview30"
     showgrid="false"
     inkscape:zoom="4.5517205"
     inkscape:cx="210.45133"
     inkscape:cy="92.505086"
     inkscape:current-layer="svg1" />
  <defs
     id="defs1">
    <clipPath
       clipPathUnits="userSpaceOnUse"
       id="clipPath40">
      <rect
         style="fill:#000000;stroke-width:0.25309685"
         id="rect42"
         width="78.763718"
         height="27.552769"
         x="67.653603"
         y="41.13055" />
    </clipPath>
  </defs>
  <g
     id="layer1"
     transform="translate(-50.389529,-32.753898)"
     style="fill:#000000"
     clip-path="url(#clipPath40)">
    <g
       id="text1"
       style="font-style:italic;font-weight:bold;font-size:25.39999962px;font-family:Sans;-inkscape-font-specification:'Sans, Bold Italic';font-feature-settings:&quot;ss04&quot;;fill:#000000;fill-opacity:0.99523196;stroke-width:2.96122003;stroke-linecap:round;stroke-linejoin:round"
       aria-label="Wina">
      <path
         style="font-family:Bookmania;-inkscape-font-specification:'Bookmania, Bold Italic';font-feature-settings:&quot;swsh&quot;;fill:#000000"
         d="m 100.62078,45.747722 c 1.4986,0.127 1.905,0.4318 1.1684,1.778 l -5.1054,9.2202 -0.5588,-9.3726 c -0.0762,-1.2446 0.5842,-1.4986 2.1082,-1.6256 l 0.254,-1.066799 h -7.9502 l -0.254,1.066799 c 0.9652,0.127 1.27,0.4064 1.3462,1.651 l 0.0254,0.5588 -4.8768,8.8138 -0.5588,-9.398 c -0.0762,-1.2446 0.508,-1.4986 2.1336,-1.6256 l 0.254,-1.066799 h -8.89 c -4.7244,0 -8.4582,2.539999 -8.4582,6.629399 0,3.0734 1.9812,4.6228 4.3434,4.6228 2.7432,0 4.6482,-1.9304 4.6482,-4.2672 0,-1.1684 -0.7874,-2.2606 -2.1844,-2.2606 -1.143,0 -2.0828,0.8382 -2.0828,2.2098 0,0.5842 0.3048,1.0668 0.3048,1.5748 0,0.5334 -0.4064,0.9144 -1.0414,0.9144 -1.1938,0 -2.032,-0.9398 -2.032,-2.794 0,-2.6924 2.3114,-4.9022 6.5024,-4.9022 h 0.6858 c 0.889,0 1.27,0.1016 1.3208,0.9906 l 0.8382,15.0622 h 3.048 l 6.223,-11.303 0.6096,11.303 h 3.048 l 8.2296,-14.9352 c 0.7366,-1.3462 1.2446,-1.651 2.286,-1.778 l 0.254,-1.066799 h -5.3848 z"
         id="path7"
         inkscape:connector-curvature="0" />
      <path
         style="font-family:Bookmania;-inkscape-font-specification:'Bookmania, Bold Italic';fill:#000000"
         d="m 109.5362,44.553923 c -1.4732,0 -2.286,1.117599 -2.286,2.184399 0,1.0414 0.7366,2.032 2.1336,2.032 1.4986,0 2.3622,-1.0922 2.3622,-2.159 0,-1.016 -0.8128,-2.057399 -2.2098,-2.057399 z m -0.6604,17.906999 0.2794,-1.0668 c -1.143,-0.127 -1.2954,-0.3556 -1.1176,-1.1176 l 2.4638,-9.906 h -1.4732 l -4.4196,2.1336 -0.254,0.9906 h 0.7874 c 0.4572,0 0.5588,0.2286 0.4064,0.762 l -1.4986,6.0198 c -0.1778,0.762 -0.4572,0.9906 -1.6256,1.1176 l -0.2794,1.0668 z"
         id="path8"
         inkscape:connector-curvature="0" />
      <path
         style="font-family:Bookmania;-inkscape-font-specification:'Bookmania, Bold Italic';font-feature-settings:&quot;ss17&quot;;fill:#000000"
         d="m 116.57199,62.460922 0.2794,-1.0668 c -1.143,-0.127 -1.2954,-0.3556 -1.1176,-1.1176 l 1.7272,-7.0104 c 0.8128,-0.4572 1.6256,-0.7366 2.4384,-0.7366 0.9398,0 1.4986,0.4826 1.1684,1.7018 l -2.1082,8.6868 c -0.889,3.6068 1.1938,5.3594 4.4704,5.3594 2.9972,0 5.1562,-1.2446 5.1562,-3.0226 0,-0.8382 -0.6858,-1.3208 -1.4478,-1.3208 -2.2606,0 -1.5494,2.8448 -3.4544,2.8448 -0.8636,0 -1.5748,-0.5588 -1.1176,-2.3876 l 2.4892,-10.0584 c 0.7874,-3.302 -1.2192,-3.9624 -3.0988,-3.9624 -1.2954,0 -2.8956,0.5588 -4.064,1.1938 l 0.3048,-1.1938 h -1.4732 l -4.4196,2.1336 -0.254,0.9906 h 0.7874 c 0.4572,0 0.5334,0.2286 0.4064,0.762 l -1.4986,6.0198 c -0.1778,0.762 -0.4572,0.9906 -1.6256,1.1176 l -0.2794,1.0668 z m 16.53539,-1.2192 c 0,1.1684 0.9398,1.524 2.2352,1.524 1.143,0 1.9812,-0.2032 2.7686,-0.635 l 0.3556,-1.2954 c -0.381,0.1524 -0.635,0.1778 -0.8128,0.1778 -0.4572,0 -0.6096,-0.2794 -0.4572,-0.9652 l 1.397,-5.5626 c 0.8128,-3.2258 -1.8796,-4.1148 -4.318,-4.1148 -3.937,0 -6.0706,1.27 -6.0706,3.0734 0,0.9398 0.6858,1.3208 1.3462,1.3208 0.9144,0 1.7018,-0.4826 2.3114,-1.524 0.5588,-0.9652 1.1176,-1.3716 1.9812,-1.3716 1.0922,0 1.3716,0.508 0.9652,2.1336 l -0.3556,1.397 c -4.9022,0.1016 -8.636,1.7272 -8.636,4.8006 0,1.6002 1.27,2.5908 3.0988,2.5908 1.6256,0 3.0226,-0.7366 4.191,-1.5494 z m 0.2794,-1.524 c -0.6604,0.4572 -1.397,0.7366 -1.9812,0.7366 -0.8382,0 -1.3208,-0.4318 -1.3208,-1.1684 0,-1.5494 1.4986,-2.3876 4.0132,-2.4638 z"
         id="path9"
         inkscape:connector-curvature="0" />
    </g>
    <path
       d="m 69.503492,70.683613 c 1.4986,0.127 1.8796,0.4318 1.1684,1.778 l -5.1054,9.2202 -0.5588,-9.3726 c -0.1016,-1.2446 0.5842,-1.4986 2.1082,-1.6256 l 0.254,-1.0668 h -7.9248 l -0.2794,1.0668 c 0.9652,0.127 1.2446,0.4064 1.3462,1.651 l 0.0254,0.5588 -4.8768,8.8138 -0.5588,-9.398 c -0.0762,-1.2446 0.508,-1.4986 2.1336,-1.6256 l 0.2794,-1.0668 h -7.950199 l -0.2794,1.0668 c 0.8636,0.127 1.269999,0.4064 1.320799,1.651 l 0.8382,15.062199 h 3.048 l 6.223,-11.302999 0.6096,11.302999 h 3.048 l 8.2296,-14.935199 c 0.7112,-1.3208 1.2446,-1.651 2.286,-1.778 l 0.254,-1.0668 h -5.3848 z m 13.51278,10.1854 c 0.635,-3.5052 -1.4224,-5.5626 -5.08,-5.5626 -3.9624,0 -7.2136,2.8956 -7.2136,7.2644 0,2.920999 2.3368,5.206999 6.0198,5.206999 2.7178,0 4.4958,-1.2192 6.1214,-3.6576 l -1.2446,-0.863599 c -1.2954,1.828799 -2.794,2.819399 -4.3434,2.819399 -1.7018,0 -2.6162,-0.9906 -2.6162,-2.844799 0,-0.7112 0.0762,-1.5494 0.254,-2.3622 z m -7.62,-1.6256 c 0.5334,-1.3462 1.4224,-2.413 2.6924,-2.413 1.27,0 1.9304,0.8382 1.6002,2.413 z m 10.896624,-6.8834 h 0.7874 c 0.4572,0 0.5588,0.2286 0.4064,0.7874 l -3.6322,14.630399 h 1.524 l 2.1082,-1.27 c 0.7874,0.8128 2.1082,1.27 3.81,1.27 4.0894,0 6.984999,-3.2258 6.984999,-7.696199 0,-2.8448 -1.7526,-4.7752 -4.419599,-4.7752 -1.1938,0 -2.2606,0.4318 -3.175,1.0668 l 1.7526,-7.1374 h -1.4732 l -4.4196,2.1336 z m 3.8354,6.223 c 0.6096,-0.7112 1.3462,-1.27 2.2606,-1.27 1.016,0 1.9558,0.508 1.9558,2.413 0,2.7178 -1.1938,6.248399 -3.9116,6.248399 -0.635,0 -1.4732,-0.2794 -1.8796,-0.9652 z m 18.008574,-1.27 0.4064,-1.6256 h -2.7432 l 0.9652,-3.8354 h -1.4732 c -1.143,2.2352 -2.6924,3.683 -5.0292,4.4704 l -0.2286,0.9906 h 1.397 l -2.616196,10.515599 c -0.889,3.6322 1.244596,5.3848 4.495796,5.3848 2.9972,0 5.1562,-1.2446 5.1562,-2.9972 0,-0.8636 -0.6858,-1.3462 -1.4478,-1.3462 -2.2606,0 -1.5494,2.8448 -3.4544,2.8448 -0.8382,0 -1.6002,-0.5588 -1.143,-2.3876 l 2.9718,-12.014199 z m 12.16661,3.556 c 0.635,-3.5052 -1.4224,-5.5626 -5.08,-5.5626 -3.9624,0 -7.2136,2.8956 -7.2136,7.2644 0,2.920999 2.3368,5.206999 6.0198,5.206999 2.7178,0 4.4958,-1.2192 6.1214,-3.6576 l -1.2446,-0.863599 c -1.2954,1.828799 -2.794,2.819399 -4.3434,2.819399 -1.7018,0 -2.6162,-0.9906 -2.6162,-2.844799 0,-0.7112 0.0762,-1.5494 0.254,-2.3622 z m -7.62,-1.6256 c 0.5334,-1.3462 1.4224,-2.413 2.6924,-2.413 1.27,0 1.9304,0.8382 1.6002,2.413 z m 15.57021,6.934199 c 0,1.1684 0.9398,1.524 2.2352,1.524 1.143,0 1.9812,-0.2032 2.7686,-0.635 l 0.3556,-1.2954 c -0.381,0.1524 -0.635,0.1778 -0.8128,0.1778 -0.4572,0 -0.6096,-0.2794 -0.4572,-0.9652 l 1.397,-5.562599 c 0.8128,-3.2258 -1.8796,-4.1148 -4.318,-4.1148 -3.937,0 -6.0706,1.27 -6.0706,3.0734 0,0.9398 0.6858,1.3208 1.3462,1.3208 0.9144,0 1.7018,-0.4826 2.3114,-1.524 0.5588,-0.9652 1.1176,-1.3716 1.9812,-1.3716 1.0922,0 1.3716,0.508 0.9652,2.1336 l -0.3556,1.397 c -4.9022,0.1016 -8.636,1.7272 -8.636,4.800599 0,1.6002 1.27,2.5908 3.0988,2.5908 1.6256,0 3.0226,-0.7366 4.191,-1.5494 z m 0.2794,-1.524 c -0.6604,0.4572 -1.397,0.7366 -1.9812,0.7366 -0.8382,0 -1.3208,-0.4318 -1.3208,-1.1684 0,-1.549399 1.4986,-2.387599 4.0132,-2.463799 z m 12.34442,2.7432 0.2794,-1.0668 c -1.143,-0.127 -1.2954,-0.3556 -1.1176,-1.1176 l 1.7272,-7.010399 c 0.8128,-0.4572 1.6256,-0.7366 2.4384,-0.7366 0.9398,0 1.4986,0.4826 1.1938,1.7018 l -1.4986,6.045199 c -0.1778,0.762 -0.4572,0.9906 -1.651,1.1176 l -0.2794,1.0668 h 6.731 l 0.2794,-1.0668 c -1.1176,-0.127 -1.2954,-0.3556 -1.1176,-1.1176 l 1.4986,-5.943599 c 0.0508,-0.254 0.1524,-0.7366 0.1524,-1.016 0.8382,-0.4826 1.651,-0.7874 2.5146,-0.7874 0.9398,0 1.4732,0.4826 1.1684,1.7018 l -2.1336,8.686799 c -0.889,3.6068 1.2192,5.3594 4.4704,5.3594 2.9972,0 5.1816,-1.2446 5.1816,-3.0226 0,-0.8382 -0.6858,-1.3208 -1.4732,-1.3208 -2.2606,0 -1.524,2.8448 -3.4544,2.8448 -0.8382,0 -1.5494,-0.5588 -1.1176,-2.3876 l 2.4892,-10.058399 c 0.8128,-3.302 -1.1938,-3.9624 -3.0734,-3.9624 -1.4224,0 -3.3274,0.6858 -4.699,1.6002 -0.4572,-1.27 -1.8288,-1.6002 -3.1242,-1.6002 -1.2954,0 -2.8956,0.5588 -4.064,1.1938 l 0.3048,-1.1938 h -1.4732 l -4.4196,2.1336 -0.254,0.9906 h 0.7874 c 0.4572,0 0.5334,0.2286 0.4064,0.762 l -1.4986,6.019799 c -0.1778,0.762 -0.4572,0.9906 -1.6256,1.1176 l -0.2794,1.0668 z"
       id="text6"
       style="font-style:italic;font-weight:bold;font-size:25.39999962px;font-family:Bookmania;-inkscape-font-specification:'Bookmania, Bold Italic';font-feature-settings:&quot;ss17&quot;;fill:#000000;fill-opacity:0.99011703;stroke-width:2.96122003;stroke-linecap:round;stroke-linejoin:round"
       aria-label="Webteam"
       inkscape:connector-curvature="0" />
  </g>
</svg>
